# xmcd CD database file
# Copyright (C) 1993-1998 Ti Kan
#
# Track frame offsets:
#	182
#	13410
#	26805
#	38502
#	50902
#	63367
#	75210
#	86070
#	97230
#	111017
#	123655
#	136775
#
# Disc length: 1975 seconds
#
# Revision: 1
# Processed by: cddbd v1.4b41PL1 Copyright (c) Steve Scherf et al.
# Submitted via: NotifyCDPlayer(CDDB) 1.51.3
#
DISCID=9f07b50c
DTITLE=Hank Williams Sr. - A Country Legend Volume 2
DYEAR=1900
DGENRE=
TTITLE0=Hey, Good Lookin'
TTITLE1=You're Gonna Change (Or I'm Gonna Leave)
TTITLE2=Kaw-Liga
TTITLE3=Move It On Over
TTITLE4=They'll Never Take Her Love From Me
TTITLE5=Settin' The Woods On Fire
TTITLE6=I Can't Help It (If I'm Still In Love With You)
TTITLE7=(I Heard That) Lonesome Whistle
TTITLE8=Ramblin' Man
TTITLE9=Honky Tonkin'
TTITLE10=Jambalaya (On The Ba;you)
TTITLE11=Window Shopping
EXTD=
EXTT0=
EXTT1=
EXTT2=
EXTT3=
EXTT4=
EXTT5=
EXTT6=
EXTT7=
EXTT8=
EXTT9=
EXTT10=
EXTT11=
PLAYORDER=
